<svg width="104" height="20" viewBox="0 0 104 20" fill="none" xmlns="http://www.w3.org/2000/svg">
<mask id="mask0_2253_9221" style="mask-type:luminance" maskUnits="userSpaceOnUse" x="0" y="0" width="23" height="20">
<path d="M15.151 6.43414C15.3739 6.02166 15.7064 5.67672 16.1129 5.43624C16.5193 5.19576 16.9844 5.06878 17.4584 5.06889H22.1596V0H18.5699L16.6377 3.57137C16.4146 3.98332 16.0823 4.32779 15.6762 4.56797C15.27 4.80815 14.8054 4.93503 14.3318 4.93504H7.8246C7.35104 4.93503 6.88637 4.80815 6.48024 4.56797C6.07412 4.32779 5.74178 3.98332 5.51874 3.57137L3.58974 0H0V5.06889H4.71392C5.1887 5.06809 5.65474 5.19474 6.06208 5.43525C6.46942 5.67576 6.8027 6.02106 7.02617 6.43414L8.48091 9.13314C8.62627 9.39931 8.70236 9.6969 8.70236 9.99921C8.70236 10.3015 8.62627 10.5991 8.48091 10.8653L7.00861 13.5737C6.7853 13.9858 6.45269 14.3303 6.04628 14.5705C5.63988 14.8107 5.17495 14.9375 4.70115 14.9374H0V19.9984H3.58974L5.52193 16.4271C5.74507 16.016 6.07702 15.6722 6.48249 15.4324C6.88796 15.1925 7.35178 15.0656 7.8246 15.065H14.3318C14.8053 15.0651 15.2699 15.1921 15.676 15.4323C16.0821 15.6724 16.4145 16.0168 16.6377 16.4286L18.5699 19.9984H22.1596V14.9295H17.4457C16.9721 14.9295 16.5074 14.8026 16.1013 14.5625C15.6952 14.3223 15.3628 13.9778 15.1398 13.5659L13.6851 10.8653C13.5419 10.6007 13.467 10.3054 13.467 10.0055C13.467 9.70562 13.5419 9.41033 13.6851 9.14574L15.151 6.43571V6.43414Z" fill="white"/>
</mask>
<g mask="url(#mask0_2253_9221)">
<path d="M0.873481 -2.16675H0V21.3574H0.873481V-2.16675Z" fill="url(#paint0_linear_2253_9221)"/>
<path d="M2.6479 -2.16675H1.77441V21.3574H2.6479V-2.16675Z" fill="url(#paint1_linear_2253_9221)"/>
<path d="M4.42133 -2.16675H3.54785V21.3574H4.42133V-2.16675Z" fill="url(#paint2_linear_2253_9221)"/>
<path d="M6.19379 -2.16675H5.32031V21.3574H6.19379V-2.16675Z" fill="url(#paint3_linear_2253_9221)"/>
<path d="M7.96821 -2.16675H7.09473V21.3574H7.96821V-2.16675Z" fill="url(#paint4_linear_2253_9221)"/>
<path d="M9.74262 -2.16675H8.86914V21.3574H9.74262V-2.16675Z" fill="url(#paint5_linear_2253_9221)"/>
<path d="M11.5161 -2.16675H10.6426V21.3574H11.5161V-2.16675Z" fill="url(#paint6_linear_2253_9221)"/>
<path d="M13.2895 -2.16675H12.416V21.3574H13.2895V-2.16675Z" fill="url(#paint7_linear_2253_9221)"/>
<path d="M15.0629 -2.16675H14.1895V21.3574H15.0629V-2.16675Z" fill="url(#paint8_linear_2253_9221)"/>
<path d="M16.8373 -2.16675H15.9639V21.3574H16.8373V-2.16675Z" fill="url(#paint9_linear_2253_9221)"/>
<path d="M18.6118 -2.16675H17.7383V21.3574H18.6118V-2.16675Z" fill="url(#paint10_linear_2253_9221)"/>
<path d="M20.3852 -2.16675H19.5117V21.3574H20.3852V-2.16675Z" fill="url(#paint11_linear_2253_9221)"/>
<path d="M22.1596 -2.16675H21.2861V21.3574H22.1596V-2.16675Z" fill="url(#paint12_linear_2253_9221)"/>
</g>
<path d="M44.9285 16.0365C45.1888 15.0382 45.4523 14.0477 45.7094 13.0447C46.5477 9.78192 48.3234 2.96671 48.3234 2.96671H50.1311L45.8196 18.1923H43.9624C43.9624 18.1923 42.5923 13.5533 41.9536 11.3424C41.3755 9.35203 40.1363 5.12874 40.0501 5.03898C39.991 5.23739 36.2783 18.2017 36.2783 18.2017H34.4707C34.4707 18.2017 32.0898 9.8827 30.9576 5.84049C30.6925 4.89569 30.429 3.95088 30.1592 2.97615H32.0211L35.3362 16.0822H35.4176C35.5901 15.4859 35.7615 14.8886 35.9318 14.2902C36.9618 10.6133 39.1367 3.0045 39.1367 3.0045H41.0817C41.0817 3.0045 44.8151 15.9373 44.8455 16.0476L44.9285 16.0365Z" fill="white"/>
<path d="M62.01 17.0884C62.01 17.3876 62.01 18.2505 62.01 18.2505C61.8865 18.3297 61.746 18.3793 61.5996 18.3954C61.3 18.423 60.9985 18.423 60.699 18.3954C59.8367 18.3025 59.388 17.8962 59.1852 17.0585C59.1293 16.8333 59.0941 16.6034 59.051 16.3767C58.6726 16.72 58.3276 17.0806 57.9332 17.3829C57.2788 17.9043 56.5102 18.2682 55.6883 18.4456C54.8665 18.623 54.014 18.609 53.1985 18.4049C51.8891 18.1088 51.0045 17.3278 50.8032 15.9673C50.602 14.6067 50.939 13.3848 52.1813 12.5785C53.0452 12.018 54.0337 11.7991 55.0381 11.6511C55.894 11.5235 56.7627 11.4558 57.6091 11.2794C59.0957 10.9645 59.0638 10.6889 58.9712 9.43077C58.9073 8.5395 58.3755 8.01356 57.5244 7.77578C56.6268 7.52972 55.6818 7.50323 54.7714 7.69862C53.7159 7.91907 53.0724 8.5395 52.9047 9.60713C52.8824 9.75043 52.8536 9.88585 52.8249 10.0512H51.2025C51.2951 8.85128 51.6528 7.80097 52.6859 7.07347C53.3241 6.64047 54.0596 6.36751 54.8289 6.27826C56.0968 6.10347 57.3488 6.14126 58.5704 6.56328C59.7552 6.97584 60.4099 7.82302 60.592 9.02292C60.6465 9.39902 60.6748 9.77836 60.6766 10.1583C60.6878 11.9424 60.6878 13.7186 60.6894 15.498C60.6894 15.5815 60.6894 15.6649 60.6894 15.7468C60.7309 16.8963 60.7501 17.1105 62.01 17.0884ZM58.9903 12.0353C58.5825 12.1887 58.1668 12.3206 57.7448 12.4305C56.9591 12.599 56.1623 12.7171 55.3703 12.8667C54.6469 12.999 53.9235 13.1344 53.3039 13.5549C52.5614 14.054 52.3458 14.7752 52.4847 15.6114C52.6109 16.3987 53.1139 16.8711 53.882 17.0648C54.9036 17.3306 55.9871 17.237 56.9464 16.8003C58.0961 16.2916 58.8754 15.4539 58.9792 14.1674C59.0366 13.4619 58.9903 12.7549 58.9903 12.0353Z" fill="white"/>
<path d="M71.5498 12.8636C71.5258 15.4618 73.0253 17.2727 75.6633 17.0963C76.1796 17.0679 76.6901 16.9737 77.1819 16.816C78.3396 16.4318 78.9049 15.583 78.9736 14.3737H80.6215C80.6319 15.1137 80.416 15.8397 80.0019 16.457C79.4149 17.3298 78.5345 17.9705 77.5156 18.2663C76.3153 18.6474 75.0305 18.6883 73.8077 18.3844C72.1678 17.9923 71.0196 17.005 70.4112 15.4634C69.6128 13.4336 69.5904 11.3692 70.4479 9.35675C72.2045 5.23581 77.6434 5.43894 79.6267 8.04976C80.5848 9.30951 80.8052 10.7472 80.6535 12.2668C80.6231 12.5644 80.5592 12.8714 80.5592 12.8714H71.9666L71.5498 12.8636ZM71.5258 11.5739H79.0438C79.2275 9.29061 77.5284 7.40099 75.1124 7.58681C72.9438 7.75372 71.6408 9.5646 71.5258 11.5739Z" fill="white"/>
<path d="M64.4773 7.80883H62.4014V6.52546H64.4677V3.14935H66.1396V6.51917H68.7632V7.79623H66.1747C66.1652 7.9537 66.1524 8.07337 66.1524 8.18833C66.1524 10.4979 66.1556 12.8111 66.162 15.1279C66.1606 15.4477 66.1873 15.767 66.2418 16.0822C66.2812 16.3132 66.3943 16.5258 66.5646 16.6892C66.7348 16.8526 66.9535 16.9582 67.1887 16.9908C67.7333 17.0538 68.2091 17.0002 68.7856 16.9908C68.7856 17.3671 68.7952 17.7545 68.776 18.1419C68.7648 18.3482 66.9125 18.4694 66.0949 18.249C65.0825 17.9765 64.6002 17.3467 64.522 16.1672C64.4821 15.5877 64.4901 15.0051 64.4885 14.4241C64.4885 12.3707 64.4885 10.3183 64.4885 8.26706L64.4773 7.80883Z" fill="white"/>
<path d="M84.7336 8.89694C85.1872 7.7553 85.9584 6.92859 87.1146 6.45619C87.5531 6.27285 88.026 6.18271 88.5022 6.19164C88.7453 6.19698 88.9848 6.25054 89.2064 6.34911V7.97103C88.6991 7.9707 88.192 7.99856 87.6878 8.05449C85.9313 8.33951 84.9396 9.44178 84.8135 11.2511C84.7544 12.125 84.7752 13.0053 84.772 13.8824C84.772 15.2382 84.772 16.5877 84.772 17.9419V18.2442H83.1064V6.5365H84.633V8.89852L84.7336 8.89694Z" fill="white"/>
<path d="M97.6697 10.4763L103.513 2.96985H101.443L96.6349 9.14731H96.4688L91.6607 2.97142H89.5928L95.4357 10.4779V10.6889L89.5928 18.1954H91.6607L96.4688 12.0195H96.6349L101.443 18.197H103.513L97.6697 10.6905V10.4763Z" fill="white"/>
<defs>
<linearGradient id="paint0_linear_2253_9221" x1="0.437539" y1="21.3574" x2="0.437539" y2="-2.16675" gradientUnits="userSpaceOnUse">
<stop stop-color="#E49680"/>
<stop offset="0.34" stop-color="#919DFB"/>
<stop offset="1" stop-color="#C1C8E6"/>
</linearGradient>
<linearGradient id="paint1_linear_2253_9221" x1="2.21036" y1="21.3574" x2="2.21036" y2="-2.16675" gradientUnits="userSpaceOnUse">
<stop stop-color="#E49680"/>
<stop offset="0.34" stop-color="#919DFB"/>
<stop offset="1" stop-color="#C1C8E6"/>
</linearGradient>
<linearGradient id="paint2_linear_2253_9221" x1="3.98379" y1="21.3574" x2="3.98379" y2="-2.16675" gradientUnits="userSpaceOnUse">
<stop stop-color="#E49680"/>
<stop offset="0.34" stop-color="#919DFB"/>
<stop offset="1" stop-color="#C1C8E6"/>
</linearGradient>
<linearGradient id="paint3_linear_2253_9221" x1="5.75785" y1="21.3574" x2="5.75785" y2="-2.16675" gradientUnits="userSpaceOnUse">
<stop stop-color="#E49680"/>
<stop offset="0.34" stop-color="#919DFB"/>
<stop offset="1" stop-color="#C1C8E6"/>
</linearGradient>
<linearGradient id="paint4_linear_2253_9221" x1="7.53227" y1="21.3574" x2="7.53227" y2="-2.16675" gradientUnits="userSpaceOnUse">
<stop stop-color="#E49680"/>
<stop offset="0.34" stop-color="#919DFB"/>
<stop offset="1" stop-color="#C1C8E6"/>
</linearGradient>
<linearGradient id="paint5_linear_2253_9221" x1="9.30508" y1="21.3574" x2="9.30508" y2="-2.16675" gradientUnits="userSpaceOnUse">
<stop stop-color="#E49680"/>
<stop offset="0.34" stop-color="#919DFB"/>
<stop offset="1" stop-color="#C1C8E6"/>
</linearGradient>
<linearGradient id="paint6_linear_2253_9221" x1="11.0785" y1="21.3574" x2="11.0785" y2="-2.16675" gradientUnits="userSpaceOnUse">
<stop stop-color="#E49680"/>
<stop offset="0.34" stop-color="#919DFB"/>
<stop offset="1" stop-color="#C1C8E6"/>
</linearGradient>
<linearGradient id="paint7_linear_2253_9221" x1="12.8536" y1="21.3574" x2="12.8536" y2="-2.16675" gradientUnits="userSpaceOnUse">
<stop stop-color="#E49680"/>
<stop offset="0.34" stop-color="#919DFB"/>
<stop offset="1" stop-color="#C1C8E6"/>
</linearGradient>
<linearGradient id="paint8_linear_2253_9221" x1="14.627" y1="21.3574" x2="14.627" y2="-2.16675" gradientUnits="userSpaceOnUse">
<stop stop-color="#E49680"/>
<stop offset="0.34" stop-color="#919DFB"/>
<stop offset="1" stop-color="#C1C8E6"/>
</linearGradient>
<linearGradient id="paint9_linear_2253_9221" x1="16.3998" y1="21.3574" x2="16.3998" y2="-2.16675" gradientUnits="userSpaceOnUse">
<stop stop-color="#E49680"/>
<stop offset="0.34" stop-color="#919DFB"/>
<stop offset="1" stop-color="#C1C8E6"/>
</linearGradient>
<linearGradient id="paint10_linear_2253_9221" x1="18.1742" y1="21.3574" x2="18.1742" y2="-2.16675" gradientUnits="userSpaceOnUse">
<stop stop-color="#E49680"/>
<stop offset="0.34" stop-color="#919DFB"/>
<stop offset="1" stop-color="#C1C8E6"/>
</linearGradient>
<linearGradient id="paint11_linear_2253_9221" x1="19.9493" y1="21.3574" x2="19.9493" y2="-2.16675" gradientUnits="userSpaceOnUse">
<stop stop-color="#E49680"/>
<stop offset="0.34" stop-color="#919DFB"/>
<stop offset="1" stop-color="#C1C8E6"/>
</linearGradient>
<linearGradient id="paint12_linear_2253_9221" x1="21.7237" y1="21.3574" x2="21.7237" y2="-2.16675" gradientUnits="userSpaceOnUse">
<stop stop-color="#E49680"/>
<stop offset="0.34" stop-color="#919DFB"/>
<stop offset="1" stop-color="#C1C8E6"/>
</linearGradient>
</defs>
</svg>
